<svg xmlns="http://www.w3.org/2000/svg" viewBox="0 0 1440 320"><path fill="#caf0f8" fill-opacity="1" d="M0,0L30,26.7C60,53,120,107,180,122.7C240,139,300,117,360,122.7C420,128,480,160,540,170.7C600,181,660,171,720,149.3C780,128,840,96,900,80C960,64,1020,64,1080,80C1140,96,1200,128,1260,128C1320,128,1380,96,1410,80L1440,64L1440,320L1410,320C1380,320,1320,320,1260,320C1200,320,1140,320,1080,320C1020,320,960,320,900,320C840,320,780,320,720,320C660,320,600,320,540,320C480,320,420,320,360,320C300,320,240,320,180,320C120,320,60,320,30,320L0,320Z"></path></svg>