<svg id="wave" style="transform:rotate(180deg); transition: 0.3s" viewBox="0 0 1440 490" version="1.1" xmlns="http://www.w3.org/2000/svg"><defs><linearGradient id="sw-gradient-0" x1="0" x2="0" y1="1" y2="0"><stop stop-color="rgba(0, 161.547, 243.075, 1)" offset="0%"></stop><stop stop-color="rgba(53.259, 107.986, 124.683, 1)" offset="100%"></stop></linearGradient></defs><path style="transform:translate(0, 0px); opacity:1" fill="url(#sw-gradient-0)" d="M0,147L48,179.7C96,212,192,278,288,294C384,310,480,278,576,269.5C672,261,768,278,864,261.3C960,245,1056,196,1152,220.5C1248,245,1344,343,1440,367.5C1536,392,1632,343,1728,269.5C1824,196,1920,98,2016,65.3C2112,33,2208,65,2304,114.3C2400,163,2496,229,2592,228.7C2688,229,2784,163,2880,114.3C2976,65,3072,33,3168,81.7C3264,131,3360,261,3456,261.3C3552,261,3648,131,3744,98C3840,65,3936,131,4032,196C4128,261,4224,327,4320,351.2C4416,376,4512,359,4608,343C4704,327,4800,310,4896,253.2C4992,196,5088,98,5184,89.8C5280,82,5376,163,5472,236.8C5568,310,5664,376,5760,334.8C5856,294,5952,147,6048,81.7C6144,16,6240,33,6336,57.2C6432,82,6528,114,6624,171.5C6720,229,6816,310,6864,351.2L6912,392L6912,490L6864,490C6816,490,6720,490,6624,490C6528,490,6432,490,6336,490C6240,490,6144,490,6048,490C5952,490,5856,490,5760,490C5664,490,5568,490,5472,490C5376,490,5280,490,5184,490C5088,490,4992,490,4896,490C4800,490,4704,490,4608,490C4512,490,4416,490,4320,490C4224,490,4128,490,4032,490C3936,490,3840,490,3744,490C3648,490,3552,490,3456,490C3360,490,3264,490,3168,490C3072,490,2976,490,2880,490C2784,490,2688,490,2592,490C2496,490,2400,490,2304,490C2208,490,2112,490,2016,490C1920,490,1824,490,1728,490C1632,490,1536,490,1440,490C1344,490,1248,490,1152,490C1056,490,960,490,864,490C768,490,672,490,576,490C480,490,384,490,288,490C192,490,96,490,48,490L0,490Z"></path><defs><linearGradient id="sw-gradient-1" x1="0" x2="0" y1="1" y2="0"><stop stop-color="rgba(0, 204.029, 255, 1)" offset="0%"></stop><stop stop-color="rgba(3, 4, 94, 1)" offset="100%"></stop></linearGradient></defs><path style="transform:translate(0, 50px); opacity:0.9" fill="url(#sw-gradient-1)" d="M0,0L48,24.5C96,49,192,98,288,106.2C384,114,480,82,576,114.3C672,147,768,245,864,294C960,343,1056,343,1152,285.8C1248,229,1344,114,1440,130.7C1536,147,1632,294,1728,326.7C1824,359,1920,278,2016,245C2112,212,2208,229,2304,212.3C2400,196,2496,147,2592,147C2688,147,2784,196,2880,236.8C2976,278,3072,310,3168,269.5C3264,229,3360,114,3456,57.2C3552,0,3648,0,3744,32.7C3840,65,3936,131,4032,204.2C4128,278,4224,359,4320,326.7C4416,294,4512,147,4608,73.5C4704,0,4800,0,4896,0C4992,0,5088,0,5184,49C5280,98,5376,196,5472,245C5568,294,5664,294,5760,245C5856,196,5952,98,6048,49C6144,0,6240,0,6336,73.5C6432,147,6528,294,6624,302.2C6720,310,6816,180,6864,114.3L6912,49L6912,490L6864,490C6816,490,6720,490,6624,490C6528,490,6432,490,6336,490C6240,490,6144,490,6048,490C5952,490,5856,490,5760,490C5664,490,5568,490,5472,490C5376,490,5280,490,5184,490C5088,490,4992,490,4896,490C4800,490,4704,490,4608,490C4512,490,4416,490,4320,490C4224,490,4128,490,4032,490C3936,490,3840,490,3744,490C3648,490,3552,490,3456,490C3360,490,3264,490,3168,490C3072,490,2976,490,2880,490C2784,490,2688,490,2592,490C2496,490,2400,490,2304,490C2208,490,2112,490,2016,490C1920,490,1824,490,1728,490C1632,490,1536,490,1440,490C1344,490,1248,490,1152,490C1056,490,960,490,864,490C768,490,672,490,576,490C480,490,384,490,288,490C192,490,96,490,48,490L0,490Z"></path></svg>