<svg id="wave" style="transform:rotate(0deg); transition: 0.3s" viewBox="0 0 1440 360" version="1.1" xmlns="http://www.w3.org/2000/svg"><defs><linearGradient id="sw-gradient-0" x1="0" x2="0" y1="1" y2="0"><stop stop-color="rgba(2, 62, 132, 1)" offset="0%"></stop><stop stop-color="rgba(0, 119, 182, 1)" offset="100%"></stop></linearGradient></defs><path style="transform:translate(0, 0px); opacity:1" fill="url(#sw-gradient-0)" d="M0,324L12.6,318C25.3,312,51,300,76,264C101.1,228,126,168,152,168C176.8,168,202,228,227,210C252.6,192,278,96,303,102C328.4,108,354,216,379,234C404.2,252,429,180,455,180C480,180,505,252,531,234C555.8,216,581,108,606,108C631.6,108,657,216,682,222C707.4,228,733,132,758,78C783.2,24,808,12,834,30C858.9,48,884,96,909,150C934.7,204,960,264,985,282C1010.5,300,1036,276,1061,240C1086.3,204,1112,156,1137,150C1162.1,144,1187,180,1213,162C1237.9,144,1263,72,1288,84C1313.7,96,1339,192,1364,192C1389.5,192,1415,96,1440,60C1465.3,24,1491,48,1516,78C1541.1,108,1566,144,1592,180C1616.8,216,1642,252,1667,270C1692.6,288,1718,288,1743,282C1768.4,276,1794,264,1806,258L1818.9,252L1818.9,360L1806.3,360C1793.7,360,1768,360,1743,360C1717.9,360,1693,360,1667,360C1642.1,360,1617,360,1592,360C1566.3,360,1541,360,1516,360C1490.5,360,1465,360,1440,360C1414.7,360,1389,360,1364,360C1338.9,360,1314,360,1288,360C1263.2,360,1238,360,1213,360C1187.4,360,1162,360,1137,360C1111.6,360,1086,360,1061,360C1035.8,360,1011,360,985,360C960,360,935,360,909,360C884.2,360,859,360,834,360C808.4,360,783,360,758,360C732.6,360,707,360,682,360C656.8,360,632,360,606,360C581.1,360,556,360,531,360C505.3,360,480,360,455,360C429.5,360,404,360,379,360C353.7,360,328,360,303,360C277.9,360,253,360,227,360C202.1,360,177,360,152,360C126.3,360,101,360,76,360C50.5,360,25,360,13,360L0,360Z"></path></svg>