<svg width="377" height="128" viewBox="0 0 377 128" fill="none" xmlns="http://www.w3.org/2000/svg">
<path fill-rule="evenodd" clip-rule="evenodd" d="M33.5 24H51V45.5H75.5V55C80.9388 48.111 89 45 96.5 45V62C75.2208 62.4527 75.2597 69.0549 75.4571 102.595C75.4777 106.095 75.5 109.889 75.5 114H47.5C30.9286 109.126 30.9859 104.252 31.4625 63.7174C31.4748 62.669 31.4874 61.5967 31.5 60.5H18V46C18.342 45.9873 18.6767 45.9753 19.0041 45.9635C31.6001 45.5109 33.5 45.4426 33.5 24ZM51 60H56V99C54.5464 98.3871 53.5529 98.0267 52.8714 97.3514C50.623 95.1231 51.7722 89.4665 51 60Z" fill="white"/>
<circle cx="66" cy="25" r="11" fill="white"/>
<path d="M122 56.85H149.9V62.25H139.2V89H132.7V62.25H122V56.85ZM152.683 56.85H159.133V69.25C160.633 67.1167 162.799 66.0333 165.633 66C165.766 66 165.899 66 166.033 66C169.699 66 172.283 66.9667 173.783 68.9C175.283 70.8 176.033 73.5667 176.033 77.2V89H169.583V77.2C169.583 73.1667 168.083 71.1333 165.083 71.1C165.016 71.1 164.966 71.1 164.933 71.1C162.933 71.1 161.466 71.7667 160.533 73.1C159.599 74.4 159.133 76.2667 159.133 78.7V89H152.683V56.85ZM178.996 66.5H185.296V69.85C186.63 67.6167 188.646 66.5 191.346 66.5H193.996V71.9H191.496C188.863 71.9 187.196 72.55 186.496 73.85C185.796 75.1167 185.446 77.8833 185.446 82.15V89H178.996V66.5ZM203.484 66.5V89H197.084V66.5H203.484ZM196.384 60.25C196.384 59.15 196.751 58.2167 197.484 57.45C198.251 56.6833 199.167 56.3 200.234 56.3C201.334 56.3 202.267 56.6833 203.034 57.45C203.801 58.2167 204.184 59.15 204.184 60.25C204.184 61.3167 203.801 62.2333 203.034 63C202.267 63.7333 201.334 64.1 200.234 64.1C199.201 64.1 198.301 63.7167 197.534 62.95C196.767 62.1833 196.384 61.2833 196.384 60.25ZM212.511 66.5L219.011 82.25L225.561 66.5H232.311L222.211 89H215.811L205.761 66.5H212.511ZM234.571 69.25C236.705 67.0833 239.638 66 243.371 66C247.038 66 249.888 67.0833 251.921 69.25C253.988 71.3833 255.021 74.2333 255.021 77.8C255.021 78.4 254.988 79.0167 254.921 79.65H237.671C237.805 81.1167 238.405 82.2833 239.471 83.15C240.571 84.0167 241.905 84.45 243.471 84.45C244.205 84.45 244.855 84.3667 245.421 84.2C246.021 84.0333 246.471 83.85 246.771 83.65C247.105 83.4167 247.371 83.1833 247.571 82.95C247.805 82.7167 247.955 82.5167 248.021 82.35L248.121 82.1H254.571C254.538 82.3 254.455 82.5667 254.321 82.9C254.221 83.2333 253.905 83.8333 253.371 84.7C252.871 85.5333 252.255 86.2833 251.521 86.95C250.788 87.5833 249.705 88.1667 248.271 88.7C246.838 89.2333 245.221 89.5 243.421 89.5C239.821 89.5 236.905 88.45 234.671 86.35C232.471 84.2167 231.371 81.3667 231.371 77.8C231.371 74.3 232.438 71.45 234.571 69.25ZM248.771 75.35C248.771 75.3167 248.771 75.2667 248.771 75.2C248.771 73.9333 248.271 72.9333 247.271 72.2C246.271 71.4333 244.988 71.05 243.421 71.05C241.821 71.05 240.505 71.45 239.471 72.25C238.471 73.05 237.871 74.0833 237.671 75.35H248.771ZM256.863 56.85H284.763V62.25H274.063V89H267.563V62.25H256.863V56.85ZM282.814 69.25C284.947 67.0833 287.88 66 291.614 66C295.28 66 298.13 67.0833 300.164 69.25C302.23 71.3833 303.264 74.2333 303.264 77.8C303.264 78.4 303.23 79.0167 303.164 79.65H285.914C286.047 81.1167 286.647 82.2833 287.714 83.15C288.814 84.0167 290.147 84.45 291.714 84.45C292.447 84.45 293.097 84.3667 293.664 84.2C294.264 84.0333 294.714 83.85 295.014 83.65C295.347 83.4167 295.614 83.1833 295.814 82.95C296.047 82.7167 296.197 82.5167 296.264 82.35L296.364 82.1H302.814C302.78 82.3 302.697 82.5667 302.564 82.9C302.464 83.2333 302.147 83.8333 301.614 84.7C301.114 85.5333 300.497 86.2833 299.764 86.95C299.03 87.5833 297.947 88.1667 296.514 88.7C295.08 89.2333 293.464 89.5 291.664 89.5C288.064 89.5 285.147 88.45 282.914 86.35C280.714 84.2167 279.614 81.3667 279.614 77.8C279.614 74.3 280.68 71.45 282.814 69.25ZM297.014 75.35C297.014 75.3167 297.014 75.2667 297.014 75.2C297.014 73.9333 296.514 72.9333 295.514 72.2C294.514 71.4333 293.23 71.05 291.664 71.05C290.064 71.05 288.747 71.45 287.714 72.25C286.714 73.05 286.114 74.0833 285.914 75.35H297.014ZM305.705 66.5H312.005V69.85C313.339 67.6167 315.355 66.5 318.055 66.5H320.705V71.9H318.205C315.572 71.9 313.905 72.55 313.205 73.85C312.505 75.1167 312.155 77.8833 312.155 82.15V89H305.705V66.5ZM322.893 66.5H329.193V69.85C330.526 67.6167 332.543 66.5 335.243 66.5H337.893V71.9H335.393C332.76 71.9 331.093 72.55 330.393 73.85C329.693 75.1167 329.343 77.8833 329.343 82.15V89H322.893V66.5ZM338.697 82.8C338.697 77.8667 344.047 75.1333 354.747 74.6H355.197V74.25C355.197 71.9167 353.697 70.75 350.697 70.75C349.43 70.75 348.43 70.95 347.697 71.35C346.997 71.75 346.597 72.15 346.497 72.55L346.347 73.15H339.797C339.797 72.95 339.83 72.7 339.897 72.4C339.964 72.0667 340.214 71.5 340.647 70.7C341.08 69.8667 341.647 69.1333 342.347 68.5C343.047 67.8667 344.13 67.3 345.597 66.8C347.064 66.2667 348.78 66 350.747 66C354.28 66 356.947 66.7333 358.747 68.2C360.58 69.6333 361.497 71.6333 361.497 74.2L361.547 80.75V82C361.547 82.6 361.63 83.0167 361.797 83.25C361.997 83.4833 362.347 83.6 362.847 83.6H363.497V89H362.797C360.764 89 359.214 88.8167 358.147 88.45C357.08 88.05 356.314 87.3333 355.847 86.3C354.08 88.4333 351.297 89.5 347.497 89.5C344.564 89.5 342.364 88.8667 340.897 87.6C339.43 86.3333 338.697 84.7333 338.697 82.8ZM345.297 82.65C345.297 83.3167 345.614 83.8333 346.247 84.2C346.88 84.5667 347.68 84.7667 348.647 84.8C348.714 84.8 348.78 84.8 348.847 84.8C350.38 84.8 351.814 84.3667 353.147 83.5C354.514 82.6333 355.197 81.4167 355.197 79.85V78.55C353.864 78.65 352.78 78.75 351.947 78.85C351.147 78.95 350.147 79.1333 348.947 79.4C347.747 79.6667 346.83 80.0833 346.197 80.65C345.597 81.1833 345.297 81.85 345.297 82.65Z" fill="white"/>
</svg>
